<svg width="36" height="36" viewBox="0 0 36 36" fill="none" xmlns="http://www.w3.org/2000/svg">
<path d="M10.5 25.5C9.675 25.5 8.96875 25.2062 8.38125 24.6187C7.79375 24.0312 7.5 23.325 7.5 22.5V7.5C7.5 6.675 7.79375 5.96875 8.38125 5.38125C8.96875 4.79375 9.675 4.5 10.5 4.5H31.5C32.325 4.5 33.0313 4.79375 33.6188 5.38125C34.2063 5.96875 34.5 6.675 34.5 7.5V22.5C34.5 23.325 34.2063 24.0312 33.6188 24.6187C33.0313 25.2062 32.325 25.5 31.5 25.5H10.5ZM10.5 7.5V11.1375V22.5H31.5V11.1375V7.5L10.5 7.5ZM4.5 31.5C3.675 31.5 2.96875 31.2062 2.38125 30.6187C1.79375 30.0312 1.5 29.325 1.5 28.5V9.75H4.5V28.5H29.25V31.5H4.5Z" fill="#1F1F1F"/>
<rect x="13" y="10" width="16" height="3" fill="#1F1F1F"/>
<rect x="13" y="16" width="12" height="3" fill="#1F1F1F"/>
</svg>
